<?xml version="1.0" standalone="no"?>
<!DOCTYPE svg PUBLIC "-//W3C//DTD SVG 20010904//EN"
 "http://www.w3.org/TR/2001/REC-SVG-20010904/DTD/svg10.dtd">
<svg version="1.0" xmlns="http://www.w3.org/2000/svg"
 width="144.000000pt" height="144.000000pt" viewBox="0 0 144.000000 144.000000"
 preserveAspectRatio="xMidYMid meet">

<g transform="translate(0.000000,144.000000) scale(0.100000,-0.100000)"
fill="#000000" stroke="none">
<path d="M305 1336 c-138 -34 -228 -124 -261 -258 -14 -56 -15 -77 -5 -125 15
-74 42 -129 88 -178 20 -22 158 -179 306 -350 175 -202 275 -310 287 -310 12
0 113 108 288 310 147 171 285 328 305 350 46 49 73 104 88 178 10 48 9 69 -5
125 -35 142 -133 233 -284 262 -138 28 -299 -42 -368 -159 -10 -17 -21 -31
-24 -31 -3 0 -14 14 -24 31 -45 77 -134 136 -234 158 -65 13 -92 13 -157 -3z"/>
</g>
</svg>
