<?xml version="1.0" standalone="no"?>
<!DOCTYPE svg PUBLIC "-//W3C//DTD SVG 20010904//EN"
 "http://www.w3.org/TR/2001/REC-SVG-20010904/DTD/svg10.dtd">
<svg version="1.0" xmlns="http://www.w3.org/2000/svg"
 width="1486.000000pt" height="1486.000000pt" viewBox="0 0 1486.000000 1486.000000"
 preserveAspectRatio="xMidYMid meet">

<g transform="translate(0.000000,1486.000000) scale(0.100000,-0.100000)"
fill="#000000" stroke="none">
<path d="M2649 14075 c-243 -48 -432 -225 -511 -475 l-23 -75 0 -6110 c0
-5904 1 -6112 18 -6170 63 -203 214 -363 417 -441 l75 -29 4795 -3 c4248 -2
4801 0 4855 13 33 8 98 34 145 56 68 34 101 58 165 123 93 94 128 154 164 280
l26 91 2 2450 c2 1348 -1 3703 -5 5236 l-7 2785 -38 77 c-244 493 -1681 1926
-2177 2170 l-65 32 -852 3 -853 2 0 -1000 0 -1000 -675 0 -675 0 0 1000 0
1000 -325 0 -325 0 0 -1000 0 -1000 -675 0 -675 0 0 1000 0 1000 -325 0 -325
0 -2 -997 -3 -998 -677 -3 -678 -2 0 1000 0 1000 -352 -1 c-248 -1 -373 -5
-419 -14z m8256 -4000 c114 -29 222 -91 305 -174 84 -86 129 -155 168 -263
l27 -73 3 -3430 c2 -3121 1 -3437 -14 -3505 -58 -272 -283 -481 -558 -519 -54
-8 -1085 -11 -3434 -11 -3621 1 -3434 -2 -3568 53 -144 58 -278 184 -344 322
-77 161 -71 -168 -68 3655 l3 3425 28 82 c69 206 238 368 447 430 l75 22 3435
0 c3032 1 3443 -1 3495 -14z"/>
</g>
</svg>
