<?xml version="1.0" standalone="no"?>
<!DOCTYPE svg PUBLIC "-//W3C//DTD SVG 20010904//EN"
 "http://www.w3.org/TR/2001/REC-SVG-20010904/DTD/svg10.dtd">
<svg version="1.0" xmlns="http://www.w3.org/2000/svg"
 width="144.000000pt" height="144.000000pt" viewBox="0 0 144.000000 144.000000"
 preserveAspectRatio="xMidYMid meet">

<g transform="translate(0.000000,144.000000) scale(0.100000,-0.100000)"
fill="#000000" stroke="none">
<path d="M200 1235 l-135 -135 193 -193 192 -192 -151 -150 c-83 -83 -157
-162 -165 -177 -37 -70 -2 -181 70 -223 47 -27 129 -34 169 -14 12 6 91 79
175 162 l152 152 200 -200 200 -200 135 135 c74 74 135 139 135 145 0 5 -87
96 -192 202 l-193 193 167 167 c157 157 168 171 177 216 16 89 -17 166 -88
204 -48 25 -118 30 -154 12 -12 -6 -97 -86 -190 -177 l-167 -167 -188 188
c-103 103 -192 187 -197 187 -6 0 -71 -61 -145 -135z"/>
</g>
</svg>
